<?xml version="1.0" standalone="no"?><!-- Generator: Gravit.io --><svg xmlns="http://www.w3.org/2000/svg" xmlns:xlink="http://www.w3.org/1999/xlink" style="isolation:isolate" viewBox="-77 170 560 87.871" width="560" height="87.871"><g id="curve"><path d=" M -77 214.67 Q -33.286 182.007 0 178.302 C 42.43 173.579 64.593 214.024 107 209.774 C 138.239 206.644 169.5 176.204 182 178.302 C 194.5 180.4 196.465 191.955 209 192.29 C 220.401 192.594 223.5 183.547 236 181.799 C 248.5 180.051 259.354 198.695 276 203.48 C 322.852 216.949 350.457 163.928 398 170.58 Q 436.089 175.909 483 215.816 L 483 257.871 L -77 257.871 L -77 214.67 Z " fill="rgb(255,255,255)" fill-opacity="0.11"/><path d=" M -77 226.56 Q -29.46 186.751 9 182.975 C 51.402 178.811 73.593 218.696 116 214.447 C 147.239 211.316 178.5 180.877 191 182.975 C 203.5 185.073 205.465 196.627 218 196.962 C 229.401 197.266 232.5 188.22 245 186.472 C 257.5 184.723 268.354 203.367 285 208.153 C 331.852 221.621 359.484 167.522 407 175.252 Q 440.716 180.737 483 215.816 L 483 257.871 L -77 257.871 L -77 226.56 Z " fill="rgb(255,255,255)" fill-opacity="0.11"/></g></svg>